GIL12_slow4_ik
nRows=3
nColumns=375

# SIMM Motion File Header:
name GIL12_slow4_ik
datacolumns 375
datarows 3
otherdata 1
range 0.23333000 0.25000000
endheader
time	pelvis_tx	pelvis_ty	pelvis_tz	pelvis_tilt	pelvis_list	pelvis_rotation	hip_flexion_r	hip_adduction_r	hip_rotation_r	knee_angle_r	ankle_angle_r	hip_flexion_l	hip_adduction_l	hip_rotation_l	knee_angle_l	ankle_angle_l	lumbar_extension	lumbar_bending	lumbar_rotation	subtalar_angle_r	mtp_angle_r	subtalar_angle_l	mtp_angle_l	asis_r_px	asis_r_py	asis_r_pz	asis_l_px	asis_l_py	asis_l_pz	midasis_px	midasis_py	midasis_pz	psis_r_px	psis_r_py	psis_r_pz	psis_l_px	psis_l_py	psis_l_pz	hip_r_px	hip_r_py	hip_r_pz	hip_l_px	hip_l_py	hip_l_pz	midhip_px	midhip_py	midhip_pz	epicondLat_r_px	epicondLat_r_py	epicondLat_r_pz	epicondMed_r_px	epicondMed_r_py	epicondMed_r_pz	thighwand_r_px	thighwand_r_py	thighwand_r_pz	upperleg1_r_px	upperleg1_r_py	upperleg1_r_pz	upperleg2_r_px	upperleg2_r_py	upperleg2_r_pz	malleolusLat_r_px	malleolusLat_r_py	malleolusLat_r_pz	malleolusMedv_r_px	malleolusMedv_r_py	malleolusMedv_r_pz	shankwand_r_px	shankwand_r_py	shankwand_r_pz	lowerleg1_r_px	lowerleg1_r_py	lowerleg1_r_pz	knee_r_px	knee_r_py	knee_r_pz	ankle_r_px	ankle_r_py	ankle_r_pz	toe_r_px	toe_r_py	toe_r_pz	epicondLat_l_px	epicondLat_l_py	epicondLat_l_pz	epicondMed_l_px	epicondMed_l_py	epicondMed_l_pz	thighwand_l_px	thighwand_l_py	thighwand_l_pz	upperleg1_l_px	upperleg1_l_py	upperleg1_l_pz	upperleg2_l_px	upperleg2_l_py	upperleg2_l_pz	malleolusLat_l_px	malleolusLat_l_py	malleolusLat_l_pz	malleolusMedv_l_px	malleolusMedv_l_py	malleolusMedv_l_pz	shankwand_l_px	shankwand_l_py	shankwand_l_pz	lowerleg1_l_px	lowerleg1_l_py	lowerleg1_l_pz	knee_l_px	knee_l_py	knee_l_pz	ankle_l_px	ankle_l_py	ankle_l_pz	toe_l_px	toe_l_py	toe_l_pz	subclavicle_r_px	subclavicle_r_py	subclavicle_r_pz	subclavicle_l_px	subclavicle_l_py	subclavicle_l_pz	neck_px	neck_py	neck_pz	sternalnotch_px	sternalnotch_py	sternalnotch_pz	xyphoidprocess_px	xyphoidprocess_py	xyphoidprocess_pz	midhip_tx	midhip_ty	midhip_tz	hip_r_tx	hip_r_ty	hip_r_tz	hip_l_tx	hip_l_ty	hip_l_tz	knee_r_tx	knee_r_ty	knee_r_tz	knee_l_tx	knee_l_ty	knee_l_tz	ankle_r_tx	ankle_r_ty	ankle_r_tz	ankle_l_tx	ankle_l_ty	ankle_l_tz	midasis_tx	midasis_ty	midasis_tz	asis_r_tx	asis_r_ty	asis_r_tz	asis_l_tx	asis_l_ty	asis_l_tz	psis_r_tx	psis_r_ty	psis_r_tz	psis_l_tx	psis_l_ty	psis_l_tz	epicondLat_r_tx	epicondLat_r_ty	epicondLat_r_tz	epicondLat_l_tx	epicondLat_l_ty	epicondLat_l_tz	epicondMed_r_tx	epicondMed_r_ty	epicondMed_r_tz	epicondMed_l_tx	epicondMed_l_ty	epicondMed_l_tz	malleolusLat_r_tx	malleolusLat_r_ty	malleolusLat_r_tz	malleolusLat_l_tx	malleolusLat_l_ty	malleolusLat_l_tz	malleolusMedv_r_tx	malleolusMedv_r_ty	malleolusMedv_r_tz	malleolusMedv_l_tx	malleolusMedv_l_ty	malleolusMedv_l_tz	neck_tx	neck_ty	neck_tz	subclavicle_r_tx	subclavicle_r_ty	subclavicle_r_tz	subclavicle_l_tx	subclavicle_l_ty	subclavicle_l_tz	sternalnotch_tx	sternalnotch_ty	sternalnotch_tz	xyphoidprocess_tx	xyphoidprocess_ty	xyphoidprocess_tz	thighwand_r_tx	thighwand_r_ty	thighwand_r_tz	thighwand_l_tx	thighwand_l_ty	thighwand_l_tz	upperleg1_r_tx	upperleg1_r_ty	upperleg1_r_tz	upperleg1_l_tx	upperleg1_l_ty	upperleg1_l_tz	upperleg2_r_tx	upperleg2_r_ty	upperleg2_r_tz	upperleg2_l_tx	upperleg2_l_ty	upperleg2_l_tz	shankwand_r_tx	shankwand_r_ty	shankwand_r_tz	shankwand_l_tx	shankwand_l_ty	shankwand_l_tz	lowerleg1_r_tx	lowerleg1_r_ty	lowerleg1_r_tz	lowerleg1_l_tx	lowerleg1_l_ty	lowerleg1_l_tz	toe_r_tx	toe_r_ty	toe_r_tz	toe_l_tx	toe_l_ty	toe_l_tz	ground_force_vx	ground_force_vy	ground_force_vz	ground_force_px	ground_force_py	ground_force_pz	ground_force_vx	ground_force_vy	ground_force_vz	ground_force_px	ground_force_py	ground_force_pz	ground_torque_x	ground_torque_y	ground_torque_z	ground_torque_x	ground_torque_y	ground_torque_z	ground_marker_px	ground_marker_py	ground_marker_pz	ground_marker_px	ground_marker_py	ground_marker_pz	ground_marker_px	ground_marker_py	ground_marker_pz	ground_marker_px	ground_marker_py	ground_marker_pz	ground_marker_px	ground_marker_py	ground_marker_pz	ground_marker_px	ground_marker_py	ground_marker_pz	ground_marker_px	ground_marker_py	ground_marker_pz	ground_marker_px	ground_marker_py	ground_marker_pz	ground_marker_px	ground_marker_py	ground_marker_pz	ground_marker_px	ground_marker_py	ground_marker_pz	ground_marker_px	ground_marker_py	ground_marker_pz	ground_marker_px	ground_marker_py	ground_marker_pz	ground_marker_px	ground_marker_py	ground_marker_pz	ground_marker_px	ground_marker_py	ground_marker_pz	ground_marker_px	ground_marker_py	ground_marker_pz	ground_marker_px	ground_marker_py	ground_marker_pz	ground_marker_px	ground_marker_py	ground_marker_pz	ground_marker_px	ground_marker_py	ground_marker_pz	ground_marker_px	ground_marker_py	ground_marker_pz	ground_marker_px	ground_marker_py	ground_marker_pz	ground_marker_px	ground_marker_py	ground_marker_pz	ground_marker_px	ground_marker_py	ground_marker_pz	ground_marker_px	ground_marker_py	ground_marker_pz	ground_marker_px	ground_marker_py	ground_marker_pz	ground_marker_px	ground_marker_py	ground_marker_pz	ground_marker_px	ground_marker_py	ground_marker_pz	ground_marker_px	ground_marker_py	ground_marker_pz	ground_marker_px	ground_marker_py	ground_marker_pz	ground_marker_px	ground_marker_py	ground_marker_pz	ground_marker_px	ground_marker_py	ground_marker_pz	ground_marker_px	ground_marker_py	ground_marker_pz	ground_marker_px	ground_marker_py	ground_marker_pz	ground_marker_px	ground_marker_py	ground_marker_pz	ground_marker_px	ground_marker_py	ground_marker_pz	ground_marker_px	ground_marker_py	ground_marker_pz	ground_marker_px	ground_marker_py	ground_marker_pz	ground_marker_px	ground_marker_py	ground_marker_pz
      0.23333000	     -1.51094118	      0.67013375	      0.24562707	     10.50616877	     -0.83317579	      8.49680357	     12.56390971	      3.76357110	     -9.93841643	    -25.59547583	      3.29175037	    -12.84674467	     -2.57866085	     -5.87830254	    -46.39012613	    -43.26236499	    -27.66366399	      9.18025140	     -1.63695063	      0.00000000	      0.00000000	      0.00000000	      0.00000000	     -1.39231256	      0.67255733	      0.29261574	     -1.41288592	      0.66593726	      0.11951744	     -1.50164699	      0.67183648	      0.24421562	     -1.52830036	      0.71685525	      0.26308857	     -1.53876136	      0.71279283	      0.17852606	     -1.54152420	      0.61952953	      0.30976057	     -1.55778146	      0.61484771	      0.19706108	     -1.54965283	      0.61718862	      0.25341082	     -1.37125774	      0.34803234	      0.32613750	     -1.37035949	      0.35189455	      0.23260347	     -1.27911016	      0.47185662	      0.26848509	     -1.36738205	      0.49789566	      0.31420218	     -1.35200329	      0.41153957	      0.30936297	     -1.43213874	      0.03936899	      0.31063736	     -1.41873468	      0.03805635	      0.25102444	     -1.39486131	      0.11957823	      0.38002307	     -1.39402824	      0.17866906	      0.31840640	     -1.42596988	      0.33893472	      0.28454319	     -1.44260272	      0.05150814	      0.25984513	     -1.33672395	      0.01873340	      0.29389279	     -1.53932567	      0.29589539	      0.11674141	     -1.50947912	      0.29280513	      0.20381963	     -1.48864632	      0.36237790	      0.04434029	     -1.46101684	      0.42414416	      0.12008587	     -1.46782134	      0.34176975	      0.13998631	     -1.79409523	      0.09989593	      0.18776187	     -1.76889403	      0.07850786	      0.24411842	     -1.63563940	      0.07243341	      0.19323329	     -1.63222014	      0.15780005	      0.17985895	     -1.56945217	      0.30760952	      0.19729196	     -1.78123049	      0.11774632	      0.24830754	     -1.83187135	     -0.00138474	      0.21636861	     -1.46093676	      0.98022288	      0.31599523	     -1.46346506	      0.99516499	      0.22859931	     -1.56252044	      1.00106303	      0.28072683	     -1.48110105	      0.99079625	      0.28122214	     -1.37992397	      0.89417725	      0.25654772	     -1.54093100	      0.60554400	      0.26193500	     -1.52854100	      0.61926300	      0.31542400	     -1.54684100	      0.61742800	      0.19942800	     -1.41918700	      0.34537400	      0.28146800	     -1.56223600	      0.31783500	      0.19612900	     -1.43922000	      0.05458000	      0.26747400	     -1.77858400	      0.12998600	      0.22646400	     -1.50002100	      0.68416400	      0.25044100	     -1.48600200	      0.68557000	      0.33930600	     -1.51404100	      0.68275800	      0.16157700	     -1.63116700	      0.69101300	      0.31745600	     -1.63931100	      0.68675500	      0.23267300	     -1.41821600	      0.34009700	      0.32715400	     -1.57464400	      0.31898300	      0.14977500	     -1.42641700	      0.34752600	      0.23827200	     -1.54288900	      0.31062100	      0.23306700	     -1.43718200	      0.05283200	      0.30086700	     -1.79163300	      0.14051900	      0.19862600	     -1.43561100	      0.05733000	      0.23972200	     -1.77617700	      0.13417300	      0.26150800	     -1.56522900	      1.01238600	      0.28298400	     -1.47731300	      0.93315600	      0.31005300	     -1.48943900	      0.94041300	      0.22086400	     -1.49552300	      0.95052600	      0.27601700	     -1.46935200	      0.81236500	      0.25603500	     -1.33881300	      0.47452700	      0.26947500	     -1.51849300	      0.39799000	      0.07688600	     -1.41640900	      0.49218200	      0.32199900	     -1.49709000	      0.44805500	      0.15633700	     -1.40011200	      0.40642800	      0.31380700	     -1.50113800	      0.36359200	      0.17273900	     -1.39401900	      0.12350100	      0.36551200	     -1.63629900	      0.12793700	      0.21566300	     -1.41443500	      0.19445600	      0.31336400	     -1.63507600	      0.21125100	      0.20132800	     -1.34771700	      0.04106900	      0.26145900	     -1.78673600	      0.04504000	      0.24737900	    -27.41027577	    255.80126455	     -4.94345239	     -1.43096057	      0.00000000	      0.27465677	      0.00000000	      0.00000000	      0.00000000	     -1.12529956	      0.00000000	      0.20344829	      0.00000000	     -0.34678207	      0.00000000	      0.00000000	      0.00000000	      0.00000000	     -1.54093146	      0.60554373	      0.26193517	     -1.52854145	      0.61926347	      0.31542358	     -1.54684103	      0.61742806	      0.19942757	     -1.41918683	      0.34537354	      0.28146785	     -1.56223583	      0.31783527	      0.19612931	     -1.43922019	      0.05457953	      0.26747429	     -1.77858353	      0.12998560	      0.22646438	     -1.50002146	      0.68416417	      0.25044131	     -1.48600221	      0.68557024	      0.33930552	     -1.51404083	      0.68275803	      0.16157711	     -1.63116729	      0.69101298	      0.31745571	     -1.63931072	      0.68675458	      0.23267268	     -1.41821575	      0.34009731	      0.32715392	     -1.57464445	      0.31898323	      0.14977512	     -1.42641675	      0.34752613	      0.23827150	     -1.54288936	      0.31062105	      0.23306651	     -1.43718183	      0.05283220	      0.30086654	     -1.79163313	      0.14051944	      0.19862565	     -1.43561137	      0.05732990	      0.23972163	     -1.77617741	      0.13417298	      0.26150826	     -1.56522918	      1.01238573	      0.28298414	     -1.47731256	      0.93315572	      0.31005251	     -1.48943913	      0.94041276	      0.22086419	     -1.49552298	      0.95052630	      0.27601659	     -1.46935236	      0.81236541	      0.25603506	     -1.33881319	      0.47452748	      0.26947504	     -1.51849341	      0.39798960	      0.07688641	     -1.41640925	      0.49218205	      0.32199886	     -1.49709046	      0.44805515	      0.15633741	     -1.40011215	      0.40642753	      0.31380722	     -1.50113785	      0.36359152	      0.17273904	     -1.39401913	      0.12350149	      0.36551237	     -1.63629937	      0.12793657	      0.21566290	     -1.41443479	      0.19445615	      0.31336385	     -1.63507617	      0.21125118	      0.20132837	     -1.34771717	      0.04106867	      0.26145929	     -1.78673577	      0.04504015	      0.24737887
      0.24167000	     -1.50633176	      0.67129536	      0.24625861	     10.34315635	     -0.75931991	      8.39986634	     12.17253150	      3.73814218	     -9.98976144	    -25.35145597	      3.59376582	    -11.73669180	     -2.57498713	     -5.49548439	    -47.78965157	    -43.48021501	    -27.58012982	      9.02845113	     -1.45298682	      0.00000000	      0.00000000	      0.00000000	      0.00000000	     -1.38776422	      0.67331022	      0.29342043	     -1.40810814	      0.66702034	      0.12028271	     -1.49703079	      0.67297407	      0.24486312	     -1.52358409	      0.71803818	      0.26376891	     -1.53393534	      0.71413822	      0.17918524	     -1.53714924	      0.62067693	      0.31026853	     -1.55325815	      0.61621817	      0.19753870	     -1.54520369	      0.61844755	      0.25390362	     -1.36953803	      0.34755132	      0.32695620	     -1.36834982	      0.35145359	      0.23342707	     -1.27605214	      0.47051657	      0.26962065	     -1.36419369	      0.49737682	      0.31511355	     -1.34963040	      0.41087979	      0.31026853	     -1.43211121	      0.03947012	      0.31111456	     -1.41853132	      0.03811896	      0.25154231	     -1.39461907	      0.11944045	      0.38066016	     -1.39328105	      0.17856018	      0.31908012	     -1.42426180	      0.33901304	      0.28521067	     -1.44235413	      0.05169321	      0.26029740	     -1.33663502	      0.01888982	      0.29481043	     -1.52899959	      0.29793990	      0.11609597	     -1.49974250	      0.29498276	      0.20337861	     -1.47888824	      0.36553598	      0.04433340	     -1.45282658	      0.42743613	      0.12052405	     -1.45842707	      0.34488113	      0.14004784	     -1.78588750	      0.10251693	      0.18567569	     -1.76124644	      0.08104640	      0.24224817	     -1.62768156	      0.07389791	      0.19232507	     -1.62353739	      0.15921257	      0.17882460	     -1.55979129	      0.30858708	      0.19643982	     -1.77332252	      0.12038222	      0.24627990	     -1.82501813	      0.00169509	      0.21437801	     -1.45585541	      0.98146827	      0.31634222	     -1.45858695	      0.99643596	      0.22895680	     -1.55750886	      1.00239959	      0.28132975	     -1.47609678	      0.99206722	      0.28162174	     -1.37505855	      0.89537356	      0.25667230	     -1.53661800	      0.60681600	      0.26187700	     -1.52438400	      0.62038400	      0.31557200	     -1.54242500	      0.61878700	      0.19953100	     -1.41753700	      0.34540200	      0.28188200	     -1.55304400	      0.31876500	      0.19464500	     -1.43909100	      0.05456700	      0.26773400	     -1.77012300	      0.13287600	      0.22569000	     -1.49552500	      0.68530400	      0.25075800	     -1.48169500	      0.68652800	      0.33971500	     -1.50935500	      0.68408000	      0.16180100	     -1.62668200	      0.69246000	      0.31723200	     -1.63469200	      0.68829400	      0.23259500	     -1.41677100	      0.34010200	      0.32756900	     -1.56506000	      0.31994600	      0.14818800	     -1.42451500	      0.34769000	      0.23872500	     -1.53340600	      0.31151900	      0.23164400	     -1.43719300	      0.05280100	      0.30113300	     -1.78304700	      0.14330300	      0.19775300	     -1.43550800	      0.05763200	      0.23993300	     -1.76613700	      0.13757100	      0.26079000	     -1.56021100	      1.01369600	      0.28357800	     -1.47231900	      0.93429000	      0.31035600	     -1.48474000	      0.94155600	      0.22128400	     -1.49061300	      0.95168300	      0.27643600	     -1.46476300	      0.81347900	      0.25635700	     -1.33592200	      0.47370900	      0.27021300	     -1.50944100	      0.40000300	      0.07590700	     -1.41346200	      0.49222400	      0.32254600	     -1.48946300	      0.45004000	      0.15586800	     -1.39790200	      0.40631500	      0.31436100	     -1.49211400	      0.36552700	      0.17188000	     -1.39392600	      0.12331500	      0.36590400	     -1.62777000	      0.12959900	      0.21523200	     -1.41388500	      0.19446200	      0.31390200	     -1.62589500	      0.21278100	      0.20049500	     -1.34778600	      0.04110300	      0.26159000	     -1.77967700	      0.04728700	      0.24635900	    -26.26151614	    253.32484786	     -5.18126625	     -1.43096423	      0.00000000	      0.27492932	      0.00000000	      0.00000000	      0.00000000	     -1.12248151	      0.00000000	      0.20375476	      0.00000000	     -0.34409991	      0.00000000	      0.00000000	      0.00000000	      0.00000000	     -1.53661752	      0.60681641	      0.26187730	     -1.52438414	      0.62038422	      0.31557158	     -1.54242492	      0.61878747	      0.19953150	     -1.41753662	      0.34540224	      0.28188208	     -1.55304432	      0.31876451	      0.19464490	     -1.43909085	      0.05456661	      0.26773363	     -1.77012300	      0.13287568	      0.22568968	     -1.49552500	      0.68530381	      0.25075805	     -1.48169482	      0.68652785	      0.33971488	     -1.50935519	      0.68407971	      0.16180123	     -1.62668169	      0.69245988	      0.31723154	     -1.63469207	      0.68829405	      0.23259470	     -1.41677141	      0.34010220	      0.32756931	     -1.56505954	      0.31994644	      0.14818810	     -1.42451489	      0.34769002	      0.23872484	     -1.53340614	      0.31151935	      0.23164421	     -1.43719316	      0.05280116	      0.30113322	     -1.78304744	      0.14330310	      0.19775268	     -1.43550837	      0.05763189	      0.23993260	     -1.76613677	      0.13757084	      0.26079023	     -1.56021130	      1.01369607	      0.28357783	     -1.47231901	      0.93429047	      0.31035560	     -1.48474002	      0.94155610	      0.22128366	     -1.49061251	      0.95168257	      0.27643594	     -1.46476328	      0.81347871	      0.25635734	     -1.33592165	      0.47370905	      0.27021301	     -1.50944090	      0.40000331	      0.07590683	     -1.41346240	      0.49222413	      0.32254589	     -1.48946261	      0.45003977	      0.15586755	     -1.39790177	      0.40631509	      0.31436065	     -1.49211407	      0.36552674	      0.17187957	     -1.39392567	      0.12331466	      0.36590421	     -1.62776971	      0.12959874	      0.21523157	     -1.41388500	      0.19446242	      0.31390160	     -1.62589455	      0.21278112	      0.20049463	     -1.34778619	      0.04110289	      0.26158956	     -1.77967739	      0.04728730	      0.24635932
      0.25000000	     -1.50179569	      0.67243324	      0.24707420	     10.19029100	     -0.66913008	      8.26963377	     11.77675686	      3.70858153	    -10.09873530	    -25.09411974	      3.88155384	    -10.64051199	     -2.54716291	     -5.03002870	    -49.17497758	    -42.84519540	    -27.47416511	      8.78857232	     -1.18339522	      0.00000000	      0.00000000	      0.00000000	      0.00000000	     -1.38331584	      0.67404285	      0.29447138	     -1.40333716	      0.66814460	      0.12128227	     -1.49248761	      0.67409009	      0.24570017	     -1.51895893	      0.71918721	      0.26464219	     -1.52915475	      0.71547967	      0.18003099	     -1.53287188	      0.62177157	      0.31092464	     -1.54877169	      0.61757537	      0.19815505	     -1.54082179	      0.61967347	      0.25453985	     -1.36794862	      0.34703682	      0.32797532	     -1.36633225	      0.35103871	      0.23445682	     -1.27305350	      0.46917100	      0.27118106	     -1.36112384	      0.49681836	      0.31633911	     -1.34736736	      0.41019191	      0.31144859	     -1.43210712	      0.03955483	      0.31149192	     -1.41826220	      0.03820658	      0.25198064	     -1.39452752	      0.11924949	      0.38130625	     -1.39260792	      0.17843597	      0.31980575	     -1.42261834	      0.33908503	      0.28599276	     -1.44205552	      0.05189119	      0.26064363	     -1.33654771	      0.01903846	      0.29575120	     -1.51855782	      0.30006908	      0.11569701	     -1.49007006	      0.29723415	      0.20323782	     -1.46889201	      0.36876478	      0.04467271	     -1.44455580	      0.43077101	      0.12134622	     -1.44898788	      0.34805689	      0.14049309	     -1.77762670	      0.10518641	      0.18324756	     -1.75365868	      0.08362943	      0.24007574	     -1.61969860	      0.07544003	      0.19138672	     -1.61481613	      0.16070097	      0.17779410	     -1.55015785	      0.30964071	      0.19576262	     -1.76548705	      0.12305754	      0.24393668	     -1.81655821	      0.00432410	      0.21121196	     -1.45100969	      0.98281616	      0.31652619	     -1.45407672	      0.99775859	      0.22914758	     -1.55279776	      1.00373115	      0.28189718	     -1.47138451	      0.99340389	      0.28188042	     -1.37043648	      0.89670930	      0.25657206	     -1.53244500	      0.60809000	      0.26182900	     -1.52036800	      0.62148200	      0.31572600	     -1.53807000	      0.62016700	      0.19963000	     -1.41598000	      0.34545500	      0.28226900	     -1.54392100	      0.31973300	      0.19315300	     -1.43895800	      0.05454400	      0.26796200	     -1.76160200	      0.13582200	      0.22489800	     -1.49113700	      0.68645000	      0.25112700	     -1.47755800	      0.68745900	      0.34018300	     -1.50471500	      0.68544100	      0.16207200	     -1.62232300	      0.69387200	      0.31697100	     -1.63017200	      0.68981900	      0.23247300	     -1.41549600	      0.34010100	      0.32795300	     -1.55543800	      0.32096200	      0.14657100	     -1.42272900	      0.34777500	      0.23891300	     -1.52396100	      0.31247000	      0.23016800	     -1.43721600	      0.05276400	      0.30136900	     -1.77439200	      0.14612000	      0.19685100	     -1.43548500	      0.05785600	      0.24010900	     -1.76056300	      0.14053900	      0.26035300	     -1.55625000	      1.01480300	      0.28413700	     -1.46738800	      0.93537100	      0.31072300	     -1.48008900	      0.94270500	      0.22165800	     -1.48579600	      0.95280900	      0.27683000	     -1.45935900	      0.81468000	      0.25651000	     -1.33312500	      0.47283300	      0.27114900	     -1.50016900	      0.40215700	      0.07496000	     -1.41108600	      0.49208100	      0.32306800	     -1.48187900	      0.45211600	      0.15549900	     -1.39621400	      0.40602700	      0.31486100	     -1.48307000	      0.36758300	      0.17109100	     -1.39389900	      0.12315100	      0.36628200	     -1.61922000	      0.13136700	      0.21486300	     -1.41343600	      0.19443100	      0.31434100	     -1.61664400	      0.21441900	      0.19959200	     -1.34785300	      0.04113600	      0.26171500	     -1.77137100	      0.04967200	      0.24509600	    -24.88469191	    250.83913641	     -5.19280783	     -1.43098499	      0.00000000	      0.27520584	      0.00000000	      0.00000000	      0.00000000	     -1.11948651	      0.00000000	      0.20404930	      0.00000000	     -0.34561710	      0.00000000	      0.00000000	      0.00000000	      0.00000000	     -1.53244543	      0.60808980	      0.26182854	     -1.52036822	      0.62148249	      0.31572562	     -1.53806984	      0.62016696	      0.19962981	     -1.41598034	      0.34545544	      0.28226870	     -1.54392064	      0.31973308	      0.19315280	     -1.43895757	      0.05454406	      0.26796213	     -1.76160192	      0.13582189	      0.22489782	     -1.49113655	      0.68644994	      0.25112742	     -1.47755778	      0.68745911	      0.34018293	     -1.50471532	      0.68544078	      0.16207190	     -1.62232339	      0.69387209	      0.31697133	     -1.63017178	      0.68981916	      0.23247303	     -1.41549551	      0.34010142	      0.32795349	     -1.55543816	      0.32096165	      0.14657131	     -1.42272878	      0.34777504	      0.23891269	     -1.52396119	      0.31246960	      0.23016807	     -1.43721616	      0.05276361	      0.30136946	     -1.77439237	      0.14611971	      0.19685121	     -1.43548536	      0.05785578	      0.24010949	     -1.76056337	      0.14053862	      0.26035276	     -1.55625045	      1.01480269	      0.28413692	     -1.46738780	      0.93537128	      0.31072313	     -1.48008871	      0.94270498	      0.22165820	     -1.48579562	      0.95280939	      0.27682951	     -1.45935857	      0.81467974	      0.25650999	     -1.33312476	      0.47283340	      0.27114949	     -1.50016928	      0.40215749	      0.07495964	     -1.41108596	      0.49208081	      0.32306847	     -1.48187876	      0.45211551	      0.15549938	     -1.39621437	      0.40602660	      0.31486139	     -1.48307049	      0.36758295	      0.17109147	     -1.39389896	      0.12315073	      0.36628243	     -1.61922038	      0.13136655	      0.21486281	     -1.41343582	      0.19443114	      0.31434137	     -1.61664355	      0.21441904	      0.19959161	     -1.34785318	      0.04113590	      0.26171526	     -1.77137125	      0.04967188	      0.24509619
